<?xml version="1.0" encoding="utf-8"?><svg viewBox="0 0 448 512" xmlns="http://www.w3.org/2000/svg" xmlns:xlink="http://www.w3.org/1999/xlink"><style>:root>svg{display:none}:root>svg:target{display:block}</style><svg fill="none" viewBox="0 0 15 15" id="apple" xmlns="http://www.w3.org/2000/svg"><path d="M5.427 15c-2.233-.014-4.08-4.57-4.08-6.892 0-3.79 2.845-4.62 3.94-4.62.495 0 1.022.193 1.487.365.326.12.662.243.85.243.111 0 .375-.105.608-.197.497-.198 1.115-.444 1.836-.444h.004c.538 0 2.168.118 3.148 1.59l.23.345-.33.25c-.473.356-1.334 1.005-1.334 2.292 0 1.525.975 2.111 1.444 2.393.207.124.421.253.421.533 0 .184-1.463 4.118-3.586 4.118-.52 0-.887-.156-1.211-.293-.328-.14-.611-.26-1.079-.26-.236 0-.536.112-.853.23-.433.163-.924.346-1.48.346h-.015zM10.293 0c.055 1.994-1.371 3.378-2.796 3.291C7.262 1.7 8.921 0 10.293 0z" fill="#fff"/></svg><svg viewBox="0 0 12 7" id="arrow" xmlns="http://www.w3.org/2000/svg"><path d="M1 1l5 5 5-5"/></svg><svg fill="none" viewBox="0 0 12 7" id="arrow-down" xmlns="http://www.w3.org/2000/svg"><path d="M1 1l5 5 5-5" stroke="#fff" stroke-linecap="round"/></svg><svg viewBox="0 0 20 18" id="cart" xmlns="http://www.w3.org/2000/svg"><path d="M20 7.125a.625.625 0 00-.625-.625h-2.771L13.036.553a.625.625 0 00-1.072.644L15.146 6.5H4.854l3.182-5.303A.625.625 0 106.964.553L3.396 6.5H.625a.625.625 0 100 1.25h.732l1.587 8.47c.166.887.941 1.53 1.844 1.53h10.424c.902 0 1.678-.643 1.843-1.53l1.588-8.47h.732c.345 0 .625-.28.625-.625zm-4.174 8.865a.624.624 0 01-.614.51H4.788c-.301 0-.56-.214-.615-.51L2.628 7.75h14.744l-1.546 8.24z"/></svg><svg fill="none" viewBox="0 0 100 100" id="chat-icon" xmlns="http://www.w3.org/2000/svg"><circle cx="50" cy="50" r="50" fill="#AB3DE2"/><path d="M27 29a6 6 0 016-6h34a6 6 0 016 6v41.642H33a6 6 0 01-6-6V29zM73 77v-6.358H58.245L73 77z" fill="#fff"/><path d="M73 77v-6.358H58.245L73 77z" fill="#fff"/><path d="M64.832 56.916c-8.238 8.238-21.594 8.238-29.832 0" stroke="#AB3DE2" stroke-width="3" stroke-linecap="round"/></svg><svg viewBox="0 0 448 512" id="check" xmlns="http://www.w3.org/2000/svg"><!--! Font Awesome Pro 6.1.1 by @fontawesome - https://fontawesome.com License - https://fontawesome.com/license (Commercial License) Copyright 2022 Fonticons, Inc.--><path d="M438.6 105.4c12.5 12.5 12.5 32.7 0 45.2l-256 256c-12.5 12.5-32.7 12.5-45.2 0L9.372 278.6c-12.496-12.5-12.496-32.7 0-45.2 12.498-12.5 32.758-12.5 45.258 0L159.1 338.7l234.3-233.3c12.5-12.52 32.7-12.52 45.2 0z"/></svg><svg fill="none" viewBox="0 0 22 22" id="close" xmlns="http://www.w3.org/2000/svg"><path d="M1 21L21 1M1 1l20 20"/></svg><svg fill="none" viewBox="0 0 40 40" id="confirmation" xmlns="http://www.w3.org/2000/svg"><path d="M39.357 23.777a2.2 2.2 0 00-1.558-.656l.014.003H26.877c-1.206 0-2.184 1-2.184 2.205v1.853c0 .582.226 1.13.64 1.545a2.17 2.17 0 001.545.642h3.178a13.745 13.745 0 01-10.058 4.382c-7.582 0-13.75-6.17-13.75-13.751 0-7.582 6.168-13.75 13.75-13.75 5.676 0 10.844 3.563 12.86 8.868a3.143 3.143 0 002.92 2.015 3.127 3.127 0 002.919-4.235C35.767 5.185 28.252.002 19.998.002 8.971.002 0 8.973 0 20c0 11.027 8.958 19.998 19.985 19.998 5.09 0 10.019-2.003 13.767-5.52v1.772c0 1.206 1.008 2.18 2.213 2.18h1.853A2.18 2.18 0 0040 36.25V25.337c0-.584-.227-1.146-.643-1.56z" fill="#8D81DB"/><path d="M29.354 14.585l-.9-.9a1.226 1.226 0 00-.873-.36c-.33 0-.641.128-.873.36l-8.722 8.722-5.268-5.267a1.227 1.227 0 00-.873-.361c-.33 0-.64.128-.873.36l-.9.9a1.238 1.238 0 000 1.747l7.041 7.04c.232.233.542.361.873.361.33 0 .64-.129.879-.367l10.49-10.49a1.235 1.235 0 000-1.745z" fill="#8D81DB"/></svg><svg fill="none" viewBox="0 0 40 40" id="details" xmlns="http://www.w3.org/2000/svg"><g clip-path="url(#iclip0_230_251)" fill="#8D81DB"><path d="M29.453 1.25H3.516A3.52 3.52 0 000 4.766v18.75a3.519 3.519 0 003.516 3.516H7.03v5.859c0 1.045 1.267 1.562 2 .829l6.345-6.345c.22-.22.517-.343.829-.343h13.248a3.52 3.52 0 003.516-3.516V4.766a3.52 3.52 0 00-3.516-3.516zM5.86 8.281h16.563a1.171 1.171 0 110 2.344H5.86a1.171 1.171 0 110-2.344zm11.876 11.72H5.859a1.171 1.171 0 110-2.345h11.876a1.171 1.171 0 110 2.344zm9.375-4.688H5.86a1.171 1.171 0 110-2.344h21.25a1.171 1.171 0 110 2.344z"/><path d="M36.484 5.938h-1.156v17.578c0 3.23-2.644 5.86-5.875 5.86H16.846l-2.5 2.327h9.934l6.688 6.704c.735.735 2 .22 2-.828v-5.876h3.516a3.506 3.506 0 003.516-3.5V9.453a3.52 3.52 0 00-3.516-3.515z"/></g><defs><clipPath id="iclip0_230_251"><path fill="#fff" d="M0 0h40v40H0z"/></clipPath></defs></svg><svg viewBox="0 0 20 20" id="dislike" xmlns="http://www.w3.org/2000/svg"><g clip-path="url(#jclip0_235_708)"><path d="M4.583.416h-2.5A2.086 2.086 0 000 2.499v6.667c0 1.148.935 2.083 2.083 2.083h3.75V.838a2.069 2.069 0 00-1.25-.422zM20 8.125c0-.723-.413-1.357-1.03-1.667a1.867 1.867 0 00-.834-2.5c.191-.38.247-.818.151-1.252-.186-.844-.98-1.456-1.888-1.456H8.75c-.547 0-1.405.173-2.083.492v8.932l.1.051 2.4 5.2v2.825c0 .127.057.247.156.326.026.02.645.507 1.51.507.965 0 2.5-1.525 2.5-3.333 0-1.14-.408-2.56-.663-3.333h5.148c1.121 0 2.075-.83 2.173-1.89a2.07 2.07 0 00-.533-1.59c.344-.345.542-.811.542-1.312z"/></g><defs><clipPath id="jclip0_235_708"><path d="M0 0h20v20H0z"/></clipPath></defs></svg><svg fill="none" viewBox="0 0 15 15" id="google" xmlns="http://www.w3.org/2000/svg"><path d="M3.516 7.5c0-.744.204-1.44.56-2.036V2.936H1.548A7.443 7.443 0 000 7.5c0 1.672.544 3.26 1.548 4.564h2.528V9.535a3.96 3.96 0 01-.56-2.035z" fill="#FBBD00"/><path d="M7.5 11.484L5.742 13.24 7.5 15c1.672 0 3.26-.544 4.564-1.547v-2.526H9.538c-.601.357-1.3.558-2.038.558z" fill="#0F9D58"/><path d="M4.075 9.535l-2.528 2.529c.199.258.415.505.649.739A7.45 7.45 0 007.499 15v-3.516a3.986 3.986 0 01-3.424-1.949z" fill="#31AA52"/><path d="M15 7.5c0-.456-.041-.913-.123-1.358l-.066-.36H7.5v3.515h3.558a3.967 3.967 0 01-1.52 1.63l2.526 2.526c.258-.199.505-.415.74-.65A7.45 7.45 0 0015 7.5z" fill="#3C79E6"/><path d="M10.317 4.683l.311.31 2.486-2.486-.31-.31A7.45 7.45 0 007.5 0L5.742 1.758 7.5 3.516c1.064 0 2.065.414 2.817 1.167z" fill="#CF2D48"/><path d="M7.5 3.516V0C5.495 0 3.612.78 2.195 2.197a7.61 7.61 0 00-.65.739l2.53 2.529a3.986 3.986 0 013.423-1.95z" fill="#EB4132"/></svg><svg viewBox="0 0 20 20" id="like" xmlns="http://www.w3.org/2000/svg"><g clip-path="url(#lclip0_235_701)"><path d="M2.083 8.75A2.086 2.086 0 000 10.833V17.5c0 1.148.935 2.083 2.083 2.083h2.5c.47 0 .901-.158 1.25-.421V8.75h-3.75zM20 11.874c0-.5-.198-.967-.542-1.311a2.07 2.07 0 00.533-1.591c-.098-1.06-1.052-1.89-2.173-1.89H12.67c.255-.774.663-2.193.663-3.333 0-1.807-1.535-3.333-2.5-3.333-.865 0-1.484.488-1.51.508a.419.419 0 00-.156.325v2.826l-2.4 5.2-.1.05v8.932c.678.32 1.536.492 2.083.492h7.65c.907 0 1.7-.611 1.888-1.455.095-.435.04-.872-.151-1.252a1.866 1.866 0 00.834-2.501A1.866 1.866 0 0020 11.874z"/></g><defs><clipPath id="lclip0_235_701"><path d="M0 0h20v20H0z"/></clipPath></defs></svg><svg fill="none" viewBox="0 0 298 42" id="mastercard" xmlns="http://www.w3.org/2000/svg"><path d="M121.744 14.08c1.387 0 2.624.288 3.712.864 1.109.576 1.973 1.43 2.592 2.56.64 1.13.96 2.496.96 4.096V32h-3.616v-9.856c0-1.579-.395-2.784-1.184-3.616-.789-.853-1.867-1.28-3.232-1.28-1.365 0-2.453.427-3.264 1.28-.789.832-1.184 2.037-1.184 3.616V32h-3.616v-9.856c0-1.579-.395-2.784-1.184-3.616-.789-.853-1.867-1.28-3.232-1.28-1.365 0-2.453.427-3.264 1.28-.789.832-1.184 2.037-1.184 3.616V32H100.4V14.368h3.648v2.016c.597-.725 1.355-1.29 2.272-1.696a7.203 7.203 0 012.944-.608c1.408 0 2.667.299 3.776.896a6.124 6.124 0 012.56 2.592c.533-1.067 1.365-1.91 2.496-2.528a7.287 7.287 0 013.648-.96zm11.65 9.024c0-1.77.363-3.339 1.088-4.704.747-1.365 1.749-2.421 3.008-3.168 1.28-.768 2.688-1.152 4.224-1.152 1.387 0 2.592.277 3.616.832 1.045.533 1.877 1.205 2.496 2.016v-2.56h3.68V32h-3.68v-2.624c-.619.832-1.461 1.525-2.528 2.08-1.067.555-2.283.832-3.648.832-1.515 0-2.901-.384-4.16-1.152-1.259-.79-2.261-1.877-3.008-3.264-.725-1.408-1.088-2.997-1.088-4.768zm14.432.064c0-1.216-.256-2.272-.768-3.168-.491-.896-1.141-1.579-1.952-2.048a5.15 5.15 0 00-2.624-.704 5.15 5.15 0 00-2.624.704c-.811.448-1.472 1.12-1.984 2.016-.491.875-.736 1.92-.736 3.136 0 1.216.245 2.283.736 3.2.512.917 1.173 1.621 1.984 2.112.832.47 1.707.704 2.624.704a5.15 5.15 0 002.624-.704c.811-.47 1.461-1.152 1.952-2.048.512-.917.768-1.984.768-3.2zm15.831 9.12c-1.386 0-2.634-.245-3.744-.736-1.088-.512-1.952-1.195-2.592-2.048a5.184 5.184 0 01-1.024-2.912h3.776c.064.747.416 1.376 1.056 1.888.662.49 1.483.736 2.464.736 1.024 0 1.814-.192 2.368-.576.576-.405.864-.917.864-1.536 0-.661-.32-1.152-.96-1.472-.618-.32-1.61-.672-2.976-1.056-1.322-.363-2.4-.715-3.232-1.056a5.804 5.804 0 01-2.176-1.568c-.597-.704-.896-1.632-.896-2.784 0-.939.278-1.792.832-2.56.555-.79 1.344-1.408 2.368-1.856 1.046-.448 2.24-.672 3.584-.672 2.006 0 3.616.512 4.832 1.536 1.238 1.003 1.899 2.379 1.984 4.128h-3.648c-.064-.79-.384-1.419-.96-1.888-.576-.47-1.354-.704-2.336-.704-.96 0-1.696.181-2.208.544-.512.363-.768.843-.768 1.44 0 .47.171.864.512 1.184.342.32.758.576 1.248.768.491.17 1.216.395 2.176.672 1.28.341 2.326.693 3.136 1.056a5.673 5.673 0 012.144 1.536c.598.683.907 1.59.928 2.72 0 1.003-.277 1.899-.832 2.688-.554.79-1.344 1.408-2.368 1.856-1.002.448-2.186.672-3.552.672zm15.91-14.944v9.76c0 .661.15 1.141.448 1.44.32.277.854.416 1.6.416h2.24V32h-2.88c-1.642 0-2.901-.384-3.776-1.152-.874-.768-1.312-2.016-1.312-3.744v-9.76h-2.08v-2.976h2.08V9.984h3.68v4.384h4.288v2.976h-4.288zm24.77 5.408c0 .661-.042 1.259-.128 1.792h-13.472c.107 1.408.63 2.539 1.568 3.392.939.853 2.091 1.28 3.456 1.28 1.963 0 3.35-.821 4.16-2.464h3.936c-.533 1.621-1.504 2.955-2.912 4-1.386 1.024-3.114 1.536-5.184 1.536-1.685 0-3.2-.373-4.544-1.12a8.375 8.375 0 01-3.136-3.2c-.746-1.387-1.12-2.987-1.12-4.8 0-1.813.363-3.403 1.088-4.768.747-1.387 1.782-2.453 3.104-3.2 1.344-.747 2.88-1.12 4.608-1.12 1.664 0 3.147.363 4.448 1.088a7.654 7.654 0 013.04 3.072c.726 1.301 1.088 2.805 1.088 4.512zm-3.808-1.152c-.021-1.344-.501-2.421-1.44-3.232-.938-.81-2.101-1.216-3.488-1.216-1.258 0-2.336.405-3.232 1.216-.896.79-1.429 1.867-1.6 3.232h9.76zm12.007-4.672a5.638 5.638 0 012.112-2.08c.896-.512 1.952-.768 3.168-.768v3.776h-.928c-1.43 0-2.518.363-3.264 1.088-.726.725-1.088 1.984-1.088 3.776V32h-3.648V14.368h3.648v2.56zm8.377 6.24c0-1.813.362-3.403 1.088-4.768.746-1.387 1.77-2.453 3.072-3.2 1.301-.747 2.794-1.12 4.48-1.12 2.133 0 3.893.512 5.28 1.536 1.408 1.003 2.357 2.443 2.848 4.32h-3.936c-.32-.875-.832-1.557-1.536-2.048-.704-.49-1.59-.736-2.656-.736-1.494 0-2.688.533-3.584 1.6-.875 1.045-1.312 2.517-1.312 4.416 0 1.899.437 3.381 1.312 4.448.896 1.067 2.09 1.6 3.584 1.6 2.112 0 3.509-.928 4.192-2.784h3.936c-.512 1.792-1.472 3.221-2.88 4.288-1.408 1.045-3.158 1.568-5.248 1.568-1.686 0-3.179-.373-4.48-1.12-1.302-.768-2.326-1.835-3.072-3.2-.726-1.387-1.088-2.987-1.088-4.8zm20.147-.064c0-1.77.363-3.339 1.088-4.704.747-1.365 1.75-2.421 3.008-3.168 1.28-.768 2.688-1.152 4.224-1.152 1.387 0 2.592.277 3.616.832 1.046.533 1.878 1.205 2.496 2.016v-2.56h3.68V32h-3.68v-2.624c-.618.832-1.461 1.525-2.528 2.08-1.066.555-2.282.832-3.648.832-1.514 0-2.901-.384-4.16-1.152-1.258-.79-2.261-1.877-3.008-3.264-.725-1.408-1.088-2.997-1.088-4.768zm14.432.064c0-1.216-.256-2.272-.768-3.168-.49-.896-1.141-1.579-1.952-2.048a5.146 5.146 0 00-2.624-.704c-.938 0-1.813.235-2.624.704-.81.448-1.472 1.12-1.984 2.016-.49.875-.736 1.92-.736 3.136 0 1.216.246 2.283.736 3.2.512.917 1.174 1.621 1.984 2.112.832.47 1.707.704 2.624.704.939 0 1.814-.235 2.624-.704.811-.47 1.462-1.152 1.952-2.048.512-.917.768-1.984.768-3.2zm13.08-6.24a5.638 5.638 0 012.112-2.08c.896-.512 1.952-.768 3.168-.768v3.776h-.928c-1.43 0-2.518.363-3.264 1.088-.726.725-1.088 1.984-1.088 3.776V32h-3.648V14.368h3.648v2.56zm8.377 6.176c0-1.77.363-3.339 1.088-4.704.747-1.365 1.749-2.421 3.008-3.168 1.28-.768 2.699-1.152 4.256-1.152 1.152 0 2.283.256 3.392.768 1.131.49 2.027 1.152 2.688 1.984V8.32h3.68V32h-3.68v-2.656c-.597.853-1.429 1.557-2.496 2.112-1.045.555-2.251.832-3.616.832-1.536 0-2.944-.384-4.224-1.152-1.259-.79-2.261-1.877-3.008-3.264-.725-1.408-1.088-2.997-1.088-4.768zm14.432.064c0-1.216-.256-2.272-.768-3.168-.491-.896-1.141-1.579-1.952-2.048a5.15 5.15 0 00-2.624-.704 5.15 5.15 0 00-2.624.704c-.811.448-1.472 1.12-1.984 2.016-.491.875-.736 1.92-.736 3.136 0 1.216.245 2.283.736 3.2.512.917 1.173 1.621 1.984 2.112.832.47 1.707.704 2.624.704a5.15 5.15 0 002.624-.704c.811-.47 1.461-1.152 1.952-2.048.512-.917.768-1.984.768-3.2z" fill="#434066"/><circle cx="49" cy="21" r="21" fill="#434066"/><circle cx="21" cy="21" r="21" fill="#292740"/><path fill-rule="evenodd" clip-rule="evenodd" d="M35 36.653c4.296-3.845 7-9.433 7-15.653 0-6.22-2.704-11.807-7-15.652A20.948 20.948 0 0028 21c0 6.22 2.704 11.808 7 15.653z" fill="#343150"/></svg><svg viewBox="0 0 448 512" id="menu-icon" xmlns="http://www.w3.org/2000/svg"><!--! Font Awesome Pro 6.1.1 by @fontawesome - https://fontawesome.com License - https://fontawesome.com/license (Commercial License) Copyright 2022 Fonticons, Inc.--><path d="M0 96c0-17.67 14.33-32 32-32h384c17.7 0 32 14.33 32 32 0 17.7-14.3 32-32 32H32c-17.67 0-32-14.3-32-32zm0 160c0-17.7 14.33-32 32-32h384c17.7 0 32 14.3 32 32s-14.3 32-32 32H32c-17.67 0-32-14.3-32-32zm416 192H32c-17.67 0-32-14.3-32-32s14.33-32 32-32h384c17.7 0 32 14.3 32 32s-14.3 32-32 32z"/></svg><svg fill="none" viewBox="0 0 40 40" id="payment" xmlns="http://www.w3.org/2000/svg"><g clip-path="url(#oclip0_230_241)" fill="#8D81DB"><path d="M37.273 32.727h-6.364c-4.01 0-7.272-3.262-7.272-7.272s3.262-7.273 7.272-7.273h6.364c.502 0 .909-.406.909-.909v-2.727c0-1.906-1.479-3.457-3.347-3.607l-5.221-9.12a3.592 3.592 0 00-2.2-1.696 3.573 3.573 0 00-2.736.367L6.78 10.91H3.637A3.64 3.64 0 000 14.546v21.818A3.64 3.64 0 003.637 40h30.908a3.64 3.64 0 003.637-3.636v-2.728a.909.909 0 00-.91-.909zM30.74 7.45l1.981 3.46H24.8l5.942-3.46zm-20.347 3.46l15.2-8.849c.41-.24.89-.304 1.35-.182.464.124.85.424 1.091.844l.002.004-14.054 8.182h-3.59z"/><path d="M37.272 20H30.91a5.46 5.46 0 00-5.455 5.454 5.46 5.46 0 005.455 5.455h6.363A2.73 2.73 0 0040 28.182v-5.455A2.73 2.73 0 0037.272 20zm-6.363 7.273a1.82 1.82 0 01-1.819-1.819 1.82 1.82 0 011.819-1.818 1.82 1.82 0 011.818 1.819 1.82 1.82 0 01-1.818 1.818z"/></g><defs><clipPath id="oclip0_230_241"><path fill="#fff" d="M0 0h40v40H0z"/></clipPath></defs></svg><svg fill="none" viewBox="0 0 200 52" id="paypal" xmlns="http://www.w3.org/2000/svg"><g clip-path="url(#pclip0_230_164)"><path d="M154.603 13.68H143.81c-.635 0-1.27.64-1.588 1.28l-4.444 28.16c0 .64.317.96.952.96h5.714c.635 0 .953-.32.953-.96l1.27-8c0-.64.635-1.28 1.587-1.28h3.492c7.302 0 11.429-3.52 12.381-10.56.635-2.88 0-5.44-1.27-7.04-1.905-1.6-4.762-2.56-8.254-2.56zm1.27 10.56c-.635 3.84-3.492 3.84-6.349 3.84h-1.905l1.27-7.36c0-.32.317-.64.952-.64h.635c1.905 0 3.81 0 4.762 1.28.635.32.635 1.28.635 2.88z" fill="#434066"/><path d="M76.825 13.68H66.032c-.635 0-1.27.64-1.588 1.28L60 43.12c0 .64.318.96.952.96h5.08c.635 0 1.27-.64 1.587-1.28l1.27-7.68c0-.64.635-1.28 1.587-1.28h3.492c7.302 0 11.429-3.52 12.381-10.56.635-2.88 0-5.44-1.27-7.04-1.904-1.6-4.444-2.56-8.254-2.56zm1.27 10.56c-.635 3.84-3.492 3.84-6.349 3.84h-1.587l1.27-7.36c0-.32.317-.64.952-.64h.635c1.905 0 3.81 0 4.762 1.28.317.32.635 1.28.317 2.88zM109.524 23.92h-5.08c-.317 0-.952.32-.952.64l-.318 1.6-.317-.64c-1.27-1.6-3.492-2.24-6.032-2.24-5.714 0-10.793 4.48-11.746 10.56-.635 3.2.318 6.08 1.905 8s3.81 2.56 6.667 2.56c4.762 0 7.301-2.88 7.301-2.88l-.317 1.6c0 .64.317.96.952.96h4.762c.635 0 1.27-.64 1.587-1.28l2.858-17.92c-.318-.32-.953-.96-1.27-.96zm-7.302 10.24c-.635 2.88-2.857 5.12-6.032 5.12-1.587 0-2.857-.64-3.492-1.28-.635-.96-.952-2.24-.952-3.84.317-2.88 2.857-5.12 5.714-5.12 1.588 0 2.54.64 3.492 1.28.953.96 1.27 2.56 1.27 3.84z" fill="#292740"/><path d="M186.984 23.92h-5.079c-.318 0-.953.32-.953.64l-.317 1.6-.318-.64c-1.269-1.6-3.492-2.24-6.031-2.24-5.715 0-10.794 4.48-11.746 10.56-.635 3.2.317 6.08 1.904 8 1.588 1.92 3.81 2.56 6.667 2.56 4.762 0 7.302-2.88 7.302-2.88l-.318 1.6c0 .64.318.96.953.96h4.762c.634 0 1.269-.64 1.587-1.28l2.857-17.92c-.317-.32-.635-.96-1.27-.96zm-7.301 10.24c-.635 2.88-2.858 5.12-6.032 5.12-1.587 0-2.857-.64-3.492-1.28-.635-.96-.953-2.24-.953-3.84.318-2.88 2.858-5.12 5.715-5.12 1.587 0 2.539.64 3.492 1.28 1.27.96 1.587 2.56 1.27 3.84z" fill="#434066"/><path d="M137.143 23.92h-5.397c-.635 0-.953.32-1.27.64l-6.984 10.88-3.175-10.24c-.317-.64-.635-.96-1.587-.96h-5.079c-.635 0-.953.64-.953 1.28l5.715 16.96-5.397 7.68c-.318.64 0 1.6.635 1.6h5.079c.635 0 .952-.32 1.27-.64l17.46-25.28c.953-.96.318-1.92-.317-1.92z" fill="#292740"/><path d="M193.016 14.64l-4.445 28.8c0 .64.318.96.953.96h4.444c.635 0 1.27-.64 1.587-1.28L200 14.96c0-.64-.318-.96-.953-.96h-5.079c-.317-.32-.635 0-.952.64z" fill="#434066"/><path d="M36.508 4.08C34.286 1.52 30.158.24 24.444.24H8.571c-.952 0-1.904.96-2.222 1.92L0 44.08c0 .96.635 1.6 1.27 1.6h9.841L13.651 30v.64c.317-.96 1.27-1.92 2.222-1.92h4.762c9.206 0 16.19-3.84 18.413-14.4v-.96c-.318 0-.318 0 0 0 .317-4.16-.318-6.72-2.54-9.28z" fill="#292740"/><path d="M38.73 13.36v.96c-2.222 10.88-9.206 14.4-18.413 14.4h-4.761c-.953 0-1.905.96-2.223 1.92L10.16 50.16c0 .64.317 1.28 1.27 1.28h8.254c.952 0 1.904-.64 1.904-1.6v-.32l1.588-9.92v-.64c0-.96.952-1.6 1.904-1.6h1.27c7.937 0 14.286-3.2 15.873-12.8.635-3.84.318-7.36-1.587-9.6-.318-.64-.953-1.28-1.905-1.6z" fill="#434066"/><path d="M36.508 12.4c-.317 0-.635-.32-.952-.32-.318 0-.635 0-.953-.32-1.27-.32-2.54-.32-4.127-.32h-12.38c-.318 0-.636 0-.953.32-.635.32-.952.96-.952 1.6L13.65 30v.64c.317-.96 1.27-1.92 2.222-1.92h4.762c9.206 0 16.19-3.84 18.413-14.4 0-.32 0-.64.317-.96-.635-.32-.952-.64-1.587-.64-.953-.32-.953-.32-1.27-.32z" fill="#343150"/></g><defs><clipPath id="pclip0_230_164"><path fill="#fff" d="M0 0h200v52H0z"/></clipPath></defs></svg><svg fill="none" viewBox="0 0 40 40" id="processing" xmlns="http://www.w3.org/2000/svg"><path d="M38.787 16.55h-3.672a15.463 15.463 0 00-1.61-4.048l2.883-2.882a1.213 1.213 0 000-1.715L32.61 4.127a1.213 1.213 0 00-1.715 0L28.09 6.93a15.476 15.476 0 00-4.076-1.746V1.226c0-.67-.543-1.212-1.213-1.212h-5.343c-.67 0-1.212.543-1.212 1.212v3.886c-1.501.37-2.916.96-4.21 1.73L9.539 4.344a1.213 1.213 0 00-1.715 0L4.046 8.122a1.213 1.213 0 000 1.715L6.56 12.35a15.463 15.463 0 00-1.7 4.198H1.213c-.67 0-1.213.543-1.213 1.213v5.343c0 .67.543 1.212 1.213 1.212H4.97a15.478 15.478 0 001.727 4.007L3.992 31.03a1.213 1.213 0 000 1.715l3.778 3.778a1.213 1.213 0 001.715 0l2.784-2.785a15.469 15.469 0 003.82 1.554v3.482c0 .67.543 1.213 1.213 1.213h5.342c.67 0 1.213-.543 1.213-1.213V35.3a15.466 15.466 0 004.002-1.65l2.9 2.9a1.213 1.213 0 001.715 0l3.778-3.778a1.213 1.213 0 000-1.715l-2.884-2.884a15.471 15.471 0 001.638-3.856h3.782c.67 0 1.212-.543 1.212-1.212v-5.343c0-.67-.543-1.213-1.213-1.213zm-29.409-.057a1.245 1.245 0 012.028-1.44 9.93 9.93 0 018.555-4.922c4.314 0 8.1 2.758 9.42 6.862a1.245 1.245 0 11-2.371.763 7.38 7.38 0 00-7.05-5.134 7.43 7.43 0 00-6.152 3.287 1.245 1.245 0 01.329 2.452l-2.206.558c-.486.124-1.07-.071-1.357-.541l-1.196-1.885zm20.86 8.733a1.246 1.246 0 01-1.644-.278 9.931 9.931 0 01-8.555 4.921 9.864 9.864 0 01-9.42-6.862 1.246 1.246 0 112.371-.762 7.38 7.38 0 007.049 5.133 7.43 7.43 0 006.152-3.286h-.024a1.246 1.246 0 01-.304-2.453l2.206-.557c.484-.122 1.087.07 1.369.559l1.184 1.866c.368.581.196 1.35-.385 1.72z" fill="#8D81DB"/></svg><svg fill="none" viewBox="0 0 28 40" id="registration" xmlns="http://www.w3.org/2000/svg"><path d="M8.142 7.925v-1.72c0-.31.252-.562.563-.562h10.59c.31 0 .563.253.563.563v1.719c0 .31-.253.563-.564.563H8.704a.564.564 0 01-.562-.563zm9.107-4.927A3.265 3.265 0 0013.999 0a3.265 3.265 0 00-3.248 2.998h6.498zm10.663 6.76v26.686A3.56 3.56 0 0124.355 40H3.645a3.56 3.56 0 01-3.557-3.556V9.758A3.56 3.56 0 013.644 6.2h1.853v1.724a3.212 3.212 0 003.208 3.208h10.59c1.769 0 3.208-1.44 3.208-3.208v-1.72-.004h1.852a3.56 3.56 0 013.557 3.557zM9.55 25.296a1.323 1.323 0 00-1.82.432l-1.25 2.028-.646-.508a1.322 1.322 0 10-1.636 2.078l1.81 1.426a1.323 1.323 0 001.945-.345l2.029-3.291a1.322 1.322 0 00-.432-1.82zm0-9.522a1.323 1.323 0 00-1.82.431l-1.25 2.029-.646-.509a1.323 1.323 0 00-1.636 2.079l1.81 1.426a1.322 1.322 0 001.945-.345l2.029-3.292a1.323 1.323 0 00-.432-1.82zm13.697 13.94c0-.731-.592-1.323-1.322-1.323h-8.641a1.323 1.323 0 100 2.645h8.64c.731 0 1.323-.592 1.323-1.323zm0-9.523c0-.73-.592-1.323-1.322-1.323h-8.641a1.323 1.323 0 100 2.646h8.64c.731 0 1.323-.592 1.323-1.323z" fill="#8D82DB"/></svg><svg fill="none" viewBox="0 0 48 48" id="review" xmlns="http://www.w3.org/2000/svg"><path d="M31.892 9.833l-.767-1.554-.767 1.554c-.205.415-.6.703-1.059.77l-1.715.249 1.241 1.21c.332.322.483.788.405 1.244l-.293 1.708 1.534-.807a1.407 1.407 0 011.308 0l1.534.807-.293-1.708a1.406 1.406 0 01.404-1.245l1.241-1.21-1.715-.249a1.406 1.406 0 01-1.058-.769z" fill="#8D81DB"/><path d="M44.25.094H18a3.75 3.75 0 00-3.75 3.75v15a3.75 3.75 0 003.75 3.75h9.375l2.58 3.87a1.406 1.406 0 002.34 0l2.58-3.87h9.375a3.75 3.75 0 003.75-3.75v-15a3.75 3.75 0 00-3.75-3.75zm-5.58 10.783l-2.753 2.683.65 3.787a1.407 1.407 0 01-2.04 1.483l-3.402-1.789-3.401 1.789a1.406 1.406 0 01-2.04-1.483l.649-3.787-2.752-2.683a1.406 1.406 0 01.78-2.398l3.802-.553 1.701-3.446a1.406 1.406 0 012.522 0l1.7 3.446 3.804.553a1.406 1.406 0 01.78 2.398z" fill="#8D81DB"/><path d="M27.615 28.024l-1.745-2.618H18c-2.862 0-5.301-1.842-6.196-4.403l-.367-.093H3.75A3.75 3.75 0 000 24.66v15a3.75 3.75 0 003.75 3.75h9.375l2.58 3.87a1.406 1.406 0 002.34 0l2.58-3.87H30a3.75 3.75 0 003.75-3.75V28.987a4.21 4.21 0 01-2.625.915 4.21 4.21 0 01-3.51-1.878zm-21.99-2.895h4.688a1.406 1.406 0 010 2.813H5.625a1.406 1.406 0 010-2.813zm22.5 14.062h-22.5a1.406 1.406 0 010-2.812h22.5a1.406 1.406 0 010 2.813zm0-5.625h-22.5a1.406 1.406 0 010-2.812h22.5a1.406 1.406 0 010 2.812z" fill="#8D81DB"/></svg><svg viewBox="0 0 18 18" id="search" xmlns="http://www.w3.org/2000/svg"><path d="M7.864 0C3.528 0 0 3.528 0 7.864s3.528 7.864 7.864 7.864 7.864-3.528 7.864-7.864S12.2 0 7.864 0zm0 14.276a6.42 6.42 0 01-6.412-6.412 6.42 6.42 0 016.412-6.412 6.42 6.42 0 016.412 6.412 6.42 6.42 0 01-6.412 6.412z"/><path d="M17.644 16.619l-4.162-4.162a.725.725 0 10-1.026 1.026l4.162 4.162a.723.723 0 001.026 0 .726.726 0 000-1.026z"/></svg><svg viewBox="0 0 20 19" id="user" xmlns="http://www.w3.org/2000/svg"><path d="M16.547 12.454a9.224 9.224 0 00-3.518-2.207 5.351 5.351 0 002.324-4.412A5.36 5.36 0 0010 .482a5.36 5.36 0 00-5.353 5.353c0 1.829.922 3.446 2.324 4.412a9.224 9.224 0 00-3.518 2.207 9.19 9.19 0 00-2.685 5.824c-.03.399.297.723.696.723.4 0 .72-.325.757-.723.365-3.97 3.715-7.09 7.779-7.09s7.413 3.12 7.78 7.09c.036.398.356.723.756.723s.726-.325.696-.723a9.19 9.19 0 00-2.685-5.824zM10 9.742a3.91 3.91 0 01-3.906-3.907A3.91 3.91 0 0110 1.93a3.91 3.91 0 013.906 3.906A3.91 3.91 0 0110 9.742z"/></svg><svg fill="none" viewBox="0 0 100 100" id="visa" xmlns="http://www.w3.org/2000/svg"><path d="M40.04 35.12l-5.082 29.823h8.128l5.087-29.824H40.04zM28.144 35.153l-7.961 20.339-.849-3.071c-1.57-3.7-6.027-9.015-11.26-12.364l7.28 24.872 8.6-.015 12.8-29.767-8.61.006z" fill="#434066"/><path d="M16.248 37.288c-.473-1.816-1.842-2.358-3.542-2.423H.105L0 35.46c9.807 2.379 16.296 8.111 18.989 15.004l-2.741-13.175zM64.647 40.837c2.659-.042 4.586.54 6.083 1.142l.734.345 1.1-6.464c-1.61-.605-4.134-1.253-7.282-1.253-8.032 0-13.693 4.046-13.737 9.843-.052 4.283 4.033 6.675 7.118 8.103 3.168 1.463 4.23 2.394 4.215 3.7-.025 1.997-2.526 2.912-4.86 2.912-3.256 0-4.985-.45-7.654-1.561l-1.048-.477-1.143 6.675c1.902.834 5.412 1.551 9.056 1.589 8.544 0 14.097-3.997 14.155-10.192.036-3.388-2.132-5.974-6.83-8.096-2.843-1.384-4.582-2.304-4.565-3.7 0-1.24 1.476-2.566 4.658-2.566zM93.423 35.152h-6.28c-1.95 0-3.402.531-4.259 2.476L70.815 64.96h8.536s1.392-3.676 1.708-4.48c.935 0 9.228.012 10.41.012.242 1.041.99 4.468.99 4.468h7.54l-6.576-29.808zM83.398 54.375c.67-1.712 3.239-8.335 3.239-8.335-.044.081.662-1.725 1.083-2.847l.547 2.571 1.884 8.611H83.4z" fill="#434066"/></svg><svg viewBox="0 0 320 512" id="xmark" xmlns="http://www.w3.org/2000/svg"><!--! Font Awesome Pro 6.1.1 by @fontawesome - https://fontawesome.com License - https://fontawesome.com/license (Commercial License) Copyright 2022 Fonticons, Inc.--><path d="M310.6 361.4c12.5 12.5 12.5 32.75 0 45.25-6.2 6.25-14.4 9.35-22.6 9.35s-16.38-3.125-22.62-9.375L160 301.3 54.63 406.6C48.38 412.9 40.19 416 32 416s-16.37-3.1-22.625-9.4c-12.5-12.5-12.5-32.75 0-45.25l105.4-105.4L9.375 150.6c-12.5-12.5-12.5-32.75 0-45.25s32.75-12.5 45.25 0L160 210.8l105.4-105.4c12.5-12.5 32.75-12.5 45.25 0s12.5 32.75 0 45.25l-105.4 105.4L310.6 361.4z"/></svg></svg>